<svg width="50" height="51" viewBox="0 0 50 51" fill="none" xmlns="http://www.w3.org/2000/svg">
<path d="M13 3.97266C7.48867 3.97266 3 8.46132 3 13.9727V37.9727C3 43.484 7.48867 47.9727 13 47.9727H37C42.5113 47.9727 47 43.484 47 37.9727V13.9727C47 8.46043 42.5112 3.97266 37 3.97266H13ZM13 5.97266H37C41.4308 5.97266 45 9.54088 45 13.9727V37.9727C45 42.4033 41.4307 45.9727 37 45.9727H13C8.56933 45.9727 5 42.4033 5 37.9727V13.9727C5 9.54199 8.56933 5.97266 13 5.97266ZM30.6934 14.9727C27.0915 14.9727 24.1543 17.9213 24.1543 21.5273C24.1543 21.5534 24.1638 21.5775 24.1641 21.6035C20.3497 21.0949 16.9747 19.2077 14.6562 16.3574C14.5541 16.2319 14.423 16.133 14.2743 16.0693C14.1255 16.0055 13.9635 15.9789 13.8021 15.9915C13.6408 16.0042 13.4849 16.0559 13.3479 16.1421C13.2109 16.2282 13.0969 16.3464 13.0156 16.4863C12.4529 17.4561 12.1328 18.5859 12.1328 19.7812C12.1328 20.8462 12.4283 21.8375 12.8809 22.7305C12.6565 22.778 12.4554 22.9011 12.311 23.0792C12.1666 23.2574 12.0879 23.4797 12.0879 23.709V23.7793C12.0879 25.7179 12.9918 27.3972 14.334 28.5996C14.1988 28.7293 14.1028 28.8944 14.0569 29.076C14.0109 29.2577 14.0169 29.4486 14.0742 29.627C14.6326 31.3683 15.9329 32.7337 17.5645 33.502C16.26 34.114 14.8636 34.5527 13.3223 34.5527C12.9115 34.5527 12.5121 34.5313 12.1211 34.4844C11.8963 34.4569 11.6688 34.5066 11.4759 34.6252C11.283 34.7438 11.136 34.9245 11.0591 35.1375C10.9822 35.3505 10.9799 35.5833 11.0525 35.7979C11.1252 36.0124 11.2685 36.1959 11.459 36.3184C14.0627 37.995 17.1664 38.9727 20.4902 38.9727C25.8616 38.9727 30.106 36.711 32.9434 33.4844C35.7808 30.2577 37.2539 26.0941 37.2539 22.1719C37.2539 22.0532 37.2486 21.9389 37.2461 21.8223C38.2205 21.0384 39.1375 20.1737 39.832 19.1309C39.9456 18.959 40.0034 18.7564 39.9974 18.5505C39.9915 18.3446 39.9221 18.1456 39.7988 17.9806C39.6755 17.8157 39.5043 17.6928 39.3085 17.6288C39.1128 17.5648 38.902 17.5628 38.7051 17.623C38.8682 17.3057 39.0967 17.0287 39.207 16.6836C39.269 16.4901 39.2707 16.2824 39.2117 16.088C39.1527 15.8936 39.0359 15.7218 38.8769 15.5954C38.7178 15.469 38.5241 15.394 38.3214 15.3805C38.1187 15.3669 37.9166 15.4154 37.7422 15.5195C36.8683 16.0389 35.8881 16.3824 34.8711 16.6211C33.7278 15.6444 32.3059 14.9727 30.6934 14.9727ZM30.6934 16.9727C32.0047 16.9727 33.178 17.5241 34.0059 18.4102C34.122 18.534 34.2677 18.6262 34.4294 18.6781C34.591 18.7301 34.7632 18.74 34.9297 18.707C35.0845 18.6765 35.2086 18.5774 35.3613 18.541C35.3389 18.5551 35.3255 18.5801 35.3027 18.5938C35.1139 18.7071 34.9677 18.8797 34.8869 19.0846C34.8062 19.2896 34.7954 19.5155 34.8561 19.7272C34.9169 19.9389 35.0459 20.1247 35.2231 20.2556C35.4003 20.3865 35.6157 20.4552 35.8359 20.4512C35.7655 20.5051 35.7241 20.5906 35.6523 20.6426C35.5183 20.7393 35.4104 20.8676 35.3381 21.0163C35.2659 21.1649 35.2316 21.329 35.2383 21.4941C35.2478 21.7196 35.2539 21.9464 35.2539 22.1719C35.2539 25.5877 33.9402 29.3247 31.4434 32.1641C28.9465 35.0034 25.3079 36.9727 20.4902 36.9727C18.8332 36.9727 17.2746 36.6382 15.791 36.1328C17.6381 35.7424 19.3862 35.0895 20.8184 33.9629C20.9802 33.8352 21.0987 33.6607 21.1575 33.4631C21.2164 33.2655 21.2127 33.0546 21.1471 32.8592C21.0814 32.6638 20.957 32.4934 20.7908 32.3714C20.6247 32.2495 20.4249 32.1818 20.2188 32.1777C18.8019 32.152 17.709 31.3492 16.8945 30.3105C17.1958 30.2715 17.5078 30.2688 17.7949 30.1895C18.0121 30.13 18.2029 29.9989 18.3364 29.8174C18.4698 29.636 18.5381 29.4148 18.5302 29.1898C18.5223 28.9647 18.4386 28.7488 18.2928 28.5772C18.1469 28.4056 17.9474 28.2882 17.7266 28.2441C16.075 27.9102 14.7845 26.6657 14.3125 25.0566C14.7383 25.1595 15.1117 25.3899 15.5645 25.4043C15.7814 25.4109 15.9945 25.3469 16.1718 25.2217C16.3491 25.0966 16.4809 24.9171 16.5472 24.7105C16.6136 24.5039 16.611 24.2813 16.5397 24.0764C16.4685 23.8714 16.3325 23.6951 16.1523 23.5742C14.9331 22.7573 14.1328 21.3694 14.1328 19.7812C14.1328 19.4537 14.3083 19.1932 14.373 18.8867C17.2132 21.7047 20.9923 23.5756 25.248 23.791C25.4029 23.7988 25.5575 23.7704 25.6996 23.7082C25.8416 23.6459 25.9672 23.5515 26.0665 23.4323C26.1658 23.3131 26.236 23.1725 26.2715 23.0216C26.3071 22.8706 26.3071 22.7134 26.2715 22.5625C26.1936 22.2322 26.1543 21.8872 26.1543 21.5273C26.1543 18.9994 28.1752 16.9727 30.6934 16.9727Z" fill="#2D4059"/>
</svg>
