<svg width="50" height="51" viewBox="0 0 50 51" fill="none" xmlns="http://www.w3.org/2000/svg">
<path d="M9 4.97266C6.25048 4.97266 4 7.22314 4 9.97266V41.9727C4 44.7222 6.25048 46.9727 9 46.9727H25.832C25.94 46.9905 26.0502 46.9905 26.1582 46.9727H31.832C31.94 46.9905 32.0502 46.9905 32.1582 46.9727H41C43.7495 46.9727 46 44.7222 46 41.9727V9.97266C46 7.22314 43.7495 4.97266 41 4.97266H9ZM9 6.97266H41C42.6685 6.97266 44 8.30417 44 9.97266V41.9727C44 43.6411 42.6685 44.9727 41 44.9727H33V30.9727H36.8203L38.2207 23.9727H33V21.9727C33 21.4152 33.0531 21.3716 33.2402 21.25C33.4274 21.1284 34.0058 20.9727 35 20.9727H38V15.3418L37.4297 15.0703C37.4297 15.0703 35.1326 13.9727 32 13.9727C29.75 13.9727 27.9016 14.8691 26.7188 16.3477C25.5359 17.8262 25 19.806 25 21.9727V23.9727H22V30.9727H25V44.9727H9C7.33152 44.9727 6 43.6411 6 41.9727V9.97266C6 8.30417 7.33152 6.97266 9 6.97266ZM32 15.9727C34.0791 15.9727 35.3874 16.4311 36 16.6738V18.9727H35C33.8492 18.9727 32.927 19.0679 32.1504 19.5723C31.3738 20.0767 31 21.0341 31 21.9727V25.9727H35.7793L35.1797 28.9727H31V44.9727H27V28.9727H24V25.9727H27V21.9727C27 20.1393 27.4641 18.6191 28.2812 17.5977C29.0984 16.5762 30.25 15.9727 32 15.9727Z" fill="#2D4059"/>
</svg>
