<svg width="44" height="45" viewBox="0 0 44 45" fill="none" xmlns="http://www.w3.org/2000/svg">
<path d="M13 0.972656C5.83248 0.972656 0 6.80514 0 13.9727V31.9727C0 39.1402 5.83248 44.9727 13 44.9727H31C38.1675 44.9727 44 39.1402 44 31.9727V13.9727C44 6.80514 38.1675 0.972656 31 0.972656H13ZM13 2.97266H31C37.0865 2.97266 42 7.88617 42 13.9727V31.9727C42 38.0591 37.0865 42.9727 31 42.9727H13C6.91352 42.9727 2 38.0591 2 31.9727V13.9727C2 7.88617 6.91352 2.97266 13 2.97266ZM34 8.97266C33.4696 8.97266 32.9609 9.18337 32.5858 9.55844C32.2107 9.93352 32 10.4422 32 10.9727C32 11.5031 32.2107 12.0118 32.5858 12.3869C32.9609 12.7619 33.4696 12.9727 34 12.9727C34.5304 12.9727 35.0391 12.7619 35.4142 12.3869C35.7893 12.0118 36 11.5031 36 10.9727C36 10.4422 35.7893 9.93352 35.4142 9.55844C35.0391 9.18337 34.5304 8.97266 34 8.97266ZM22 11.9727C15.9367 11.9727 11 16.9094 11 22.9727C11 29.0359 15.9367 33.9727 22 33.9727C28.0633 33.9727 33 29.0359 33 22.9727C33 16.9094 28.0633 11.9727 22 11.9727ZM22 13.9727C26.9824 13.9727 31 17.9902 31 22.9727C31 27.9551 26.9824 31.9727 22 31.9727C17.0176 31.9727 13 27.9551 13 22.9727C13 17.9902 17.0176 13.9727 22 13.9727Z" fill="#2D4059"/>
</svg>
